<svg xmlns="http://www.w3.org/2000/svg" xmlns:xlink="http://www.w3.org/1999/xlink" width="500" zoomAndPan="magnify" viewBox="0 0 375 374.999991" height="500" preserveAspectRatio="xMidYMid meet" version="1.0"><defs><g/><clipPath id="331ddea4cf"><path d="M 147.339844 0 L 372.339844 0 L 372.339844 322 L 147.339844 322 Z M 147.339844 0 " clip-rule="nonzero"/></clipPath><clipPath id="12566ef7a2"><path d="M 57.992188 48.242188 L 249.242188 48.242188 L 249.242188 322 L 57.992188 322 Z M 57.992188 48.242188 " clip-rule="nonzero"/></clipPath><clipPath id="32817717c2"><path d="M 2.355469 97 L 160.605469 97 L 160.605469 322 L 2.355469 322 Z M 2.355469 97 " clip-rule="nonzero"/></clipPath></defs><g clip-path="url(#331ddea4cf)"><path fill="#8c52ff" d="M 357.484375 82.363281 L 312.425781 82.363281 L 312.425781 50.121094 C 312.425781 48.957031 312.8125 29.148438 299.21875 14.773438 C 289.894531 5.839844 276.6875 0.789062 259.984375 0.789062 C 243.28125 0.789062 230.078125 5.453125 220.753906 15.164062 C 207.160156 29.535156 207.160156 48.957031 207.546875 50.511719 L 207.546875 82.75 L 162.488281 82.75 L 147.339844 321.640625 L 372.632812 321.640625 Z M 211.429688 82.363281 L 211.429688 49.734375 C 211.429688 47.402344 211.820312 29.921875 223.859375 17.882812 C 232.019531 9.335938 244.449219 4.675781 259.984375 4.675781 C 275.523438 4.675781 287.953125 8.949219 296.109375 17.882812 C 308.152344 30.3125 308.539062 47.402344 308.539062 49.734375 L 308.539062 82.363281 L 259.984375 82.363281 C 259.984375 82.363281 211.429688 82.363281 211.429688 82.363281 Z M 211.429688 82.363281 " fill-opacity="1" fill-rule="nonzero"/></g><g clip-path="url(#12566ef7a2)"><path fill="#ff66c4" d="M 236.699219 118.28125 L 198.382812 118.28125 L 198.382812 90.863281 C 198.382812 89.875 198.714844 73.027344 187.152344 60.804688 C 179.222656 53.207031 167.992188 48.914062 153.789062 48.914062 C 139.585938 48.914062 128.355469 52.878906 120.425781 61.136719 C 108.863281 73.359375 108.863281 89.875 109.195312 91.195312 L 109.195312 118.613281 L 70.875 118.613281 L 57.992188 321.765625 L 249.582031 321.765625 Z M 112.5 118.28125 L 112.5 90.535156 C 112.5 88.554688 112.828125 73.6875 123.070312 63.449219 C 130.003906 56.179688 140.574219 52.21875 153.789062 52.21875 C 167.003906 52.21875 177.574219 55.851562 184.507812 63.449219 C 194.75 74.019531 195.078125 88.554688 195.078125 90.535156 L 195.078125 118.28125 L 153.789062 118.28125 C 153.789062 118.28125 112.5 118.28125 112.5 118.28125 Z M 112.5 118.28125 " fill-opacity="1" fill-rule="nonzero"/></g><g clip-path="url(#32817717c2)"><path fill="#8c52ff" d="M 149.617188 154.199219 L 118.042969 154.199219 L 118.042969 131.609375 C 118.042969 130.792969 118.3125 116.910156 108.785156 106.839844 C 102.253906 100.578125 93 97.039062 81.292969 97.039062 C 69.589844 97.039062 60.335938 100.304688 53.804688 107.109375 C 44.277344 117.179688 44.277344 130.792969 44.546875 131.878906 L 44.546875 154.472656 L 12.972656 154.472656 L 2.355469 321.875 L 160.230469 321.875 Z M 47.269531 154.199219 L 47.269531 131.335938 C 47.269531 129.703125 47.542969 117.453125 55.980469 109.015625 C 61.695312 103.027344 70.40625 99.761719 81.292969 99.761719 C 92.183594 99.761719 100.894531 102.753906 106.609375 109.015625 C 115.046875 117.726562 115.320312 129.703125 115.320312 131.335938 L 115.320312 154.199219 L 81.292969 154.199219 C 81.292969 154.199219 47.269531 154.199219 47.269531 154.199219 Z M 47.269531 154.199219 " fill-opacity="1" fill-rule="nonzero"/></g><g fill="#ff66c4" fill-opacity="1"><g transform="translate(5.510174, 354.870365)"><g><path d="M 18.679688 -14.445312 C 18.621094 -14.445312 18.558594 -14.445312 18.5 -14.445312 C 18.441406 -14.625 17.96875 -16.8125 17.9375 -16.992188 C 17.257812 -19.714844 16.488281 -23.148438 15.925781 -25.191406 C 14.269531 -31.316406 6.75 -30.816406 4.5 -28.683594 C 3.9375 -25.398438 3.34375 -22.140625 2.78125 -18.886719 C 2.21875 -15.394531 1.363281 -11.691406 0.859375 -8.199219 C -0.355469 0.238281 5.476562 1.539062 10.273438 -1.066406 C 10.566406 -5.683594 10.835938 -9.207031 11.128906 -13.734375 C 11.484375 -12.757812 12.816406 -6.898438 13.5 -4.054688 C 14.710938 0.828125 20.957031 -0.0585938 22.882812 -1.273438 C 23.742188 -4.707031 24.539062 -8.171875 25.367188 -11.632812 C 25.515625 -12.226562 25.605469 -12.847656 25.753906 -13.46875 C 25.8125 -13.4375 25.871094 -13.4375 25.929688 -13.4375 C 26.109375 -8.910156 25.902344 -7.636719 26.316406 -4.113281 C 26.820312 0.59375 33.152344 1.804688 36.351562 -2.339844 C 35.964844 -5.714844 35.640625 -8.585938 35.226562 -11.957031 C 34.8125 -15.421875 34.128906 -21.253906 33.835938 -23.472656 C 33.09375 -29.335938 26.90625 -31.585938 22.171875 -28.476562 C 21.964844 -27.914062 21.726562 -27.351562 21.578125 -26.757812 C 20.660156 -22.851562 19.773438 -18.914062 18.855469 -15.007812 C 18.796875 -14.800781 18.738281 -14.625 18.679688 -14.445312 Z M 18.679688 -14.445312 "/></g></g></g><g fill="#ff66c4" fill-opacity="1"><g transform="translate(42.565852, 354.870365)"><g><path d="M 0.621094 -9.472656 C -0.652344 -2.753906 2.695312 1.894531 9.976562 -0.769531 C 10.390625 -2.308594 10.863281 -3.789062 11.367188 -5.03125 C 13.261719 -4.972656 15.332031 -5.089844 17.199219 -5.003906 C 19.535156 3.109375 28.566406 -0.5625 28.980469 -3.789062 C 27.855469 -10.003906 24.777344 -19.890625 23.179688 -23.800781 C 19.804688 -32.027344 10.980469 -30.164062 6.925781 -28.832031 C 5.03125 -25.132812 1.777344 -15.421875 0.621094 -9.472656 Z M 12.519531 -12.964844 C 13.082031 -15.394531 13.644531 -17.703125 14.179688 -20.039062 C 14.269531 -20.039062 14.355469 -20.039062 14.445312 -20.070312 C 15.007812 -17.703125 15.601562 -15.363281 16.164062 -12.964844 C 14.949219 -12.964844 13.792969 -12.964844 12.519531 -12.964844 Z M 12.519531 -12.964844 "/></g></g></g><g fill="#ff66c4" fill-opacity="1"><g transform="translate(71.955862, 354.870365)"><g><path d="M 1.035156 -5.59375 C 1.804688 0.652344 8.792969 1.066406 11.335938 -0.769531 C 11.898438 -5.625 11.632812 -17.703125 11.425781 -20.425781 C 15.246094 -20.425781 15.925781 -20.425781 17.523438 -20.425781 C 24.65625 -20.425781 23.886719 -27.738281 22.792969 -29.335938 C 17.523438 -29.71875 6.335938 -29.839844 1.421875 -29.363281 C 0.828125 -24.363281 0.53125 -9.738281 1.035156 -5.59375 Z M 1.035156 -5.59375 "/></g></g></g><g fill="#ff66c4" fill-opacity="1"><g transform="translate(96.16636, 354.870365)"><g><path d="M 0.621094 -9.472656 C -0.652344 -2.753906 2.695312 1.894531 9.976562 -0.769531 C 10.390625 -2.308594 10.863281 -3.789062 11.367188 -5.03125 C 13.261719 -4.972656 15.332031 -5.089844 17.199219 -5.003906 C 19.535156 3.109375 28.566406 -0.5625 28.980469 -3.789062 C 27.855469 -10.003906 24.777344 -19.890625 23.179688 -23.800781 C 19.804688 -32.027344 10.980469 -30.164062 6.925781 -28.832031 C 5.03125 -25.132812 1.777344 -15.421875 0.621094 -9.472656 Z M 12.519531 -12.964844 C 13.082031 -15.394531 13.644531 -17.703125 14.179688 -20.039062 C 14.269531 -20.039062 14.355469 -20.039062 14.445312 -20.070312 C 15.007812 -17.703125 15.601562 -15.363281 16.164062 -12.964844 C 14.949219 -12.964844 13.792969 -12.964844 12.519531 -12.964844 Z M 12.519531 -12.964844 "/></g></g></g><g fill="#ff66c4" fill-opacity="1"><g transform="translate(125.556369, 354.870365)"><g><path d="M 23 -15.925781 C 23.679688 -16.871094 24.066406 -18.027344 24.242188 -19.328125 C 24.539062 -21.816406 23.859375 -27.351562 16.871094 -29.511719 C 14.503906 -30.253906 10.003906 -30.578125 5.980469 -28.980469 C 1.894531 -27.351562 3.730469 -22.082031 6.484375 -20.78125 C 8.820312 -22.289062 15.421875 -23.238281 15.453125 -20.660156 C 15.480469 -19.597656 13.527344 -19.269531 10.714844 -19.242188 C 6.246094 -19.152344 6.808594 -13.675781 9.148438 -12.433594 C 13.230469 -12.550781 16.101562 -11.632812 15.570312 -9.621094 C 15.097656 -7.816406 11.1875 -7.875 7.015625 -9.945312 C 2.191406 -12.285156 -1.125 -6.304688 1.71875 -2.722656 C 7.074219 1.597656 16.25 0.886719 20.128906 -0.679688 C 25.722656 -2.929688 28.089844 -12.285156 23 -15.925781 Z M 23 -15.925781 "/></g></g></g><g fill="#ff66c4" fill-opacity="1"><g transform="translate(152.193838, 354.870365)"><g><path d="M 11.664062 -16.933594 C 11.664062 -21.078125 11.929688 -22.171875 11.605469 -25.515625 C 11.1875 -29.71875 3.9375 -31.464844 0.828125 -28.121094 C 0.679688 -24.894531 0.445312 -10.980469 1.007812 -6.214844 C 1.71875 -0.296875 7.429688 2.308594 12.285156 -0.828125 C 13.320312 -2.488281 17.433594 -9.621094 18.117188 -10.6875 C 18.234375 -10.894531 18.351562 -11.042969 18.472656 -11.21875 C 18.558594 -11.21875 18.621094 -11.1875 18.707031 -11.1875 C 18.589844 -7.519531 18.472656 -6.484375 18.558594 -4.675781 C 18.796875 -0.175781 23.949219 2.21875 29.039062 -1.09375 C 29.335938 -6.394531 29.71875 -19.417969 29.421875 -24.214844 C 29.039062 -30.339844 21.699219 -30.578125 18.351562 -28.625 C 16.960938 -26.257812 14.328125 -21.429688 12.167969 -17.523438 C 12.046875 -17.316406 11.898438 -17.109375 11.78125 -16.871094 C 11.722656 -16.902344 11.691406 -16.902344 11.664062 -16.933594 Z M 11.664062 -16.933594 "/></g></g></g><g fill="#ff66c4" fill-opacity="1"><g transform="translate(182.678934, 354.870365)"><g><path d="M 12.402344 -19.359375 C 12.402344 -19.65625 12.582031 -22.46875 12.3125 -25.074219 C 11.871094 -29.570312 5.210938 -31.199219 1.273438 -27.945312 C 0.917969 -22.554688 1.273438 -8.140625 1.507812 -4.882812 C 2.011719 2.398438 10.863281 0.769531 12.492188 -0.710938 C 12.492188 -3.789062 12.492188 -6.898438 12.492188 -9.796875 C 14.445312 -9.796875 16.132812 -9.796875 18.027344 -9.796875 C 18.027344 -8.523438 18.085938 -5.121094 18.292969 -3.582031 C 18.972656 1.804688 27.796875 0.738281 29.128906 -0.738281 C 29.1875 -1.421875 29.214844 -2.839844 29.214844 -3.878906 C 29.246094 -11.398438 29.246094 -20.839844 29.246094 -23.800781 C 29.246094 -29.453125 22.023438 -31.289062 18.382812 -28.386719 C 18.117188 -26.789062 18.175781 -22.675781 18.085938 -19.359375 C 16.191406 -19.359375 14.355469 -19.359375 12.402344 -19.359375 Z M 12.402344 -19.359375 "/></g></g></g><g fill="#ff66c4" fill-opacity="1"><g transform="translate(213.282421, 354.870365)"><g><path d="M 1.15625 -6.839844 C 1.390625 -2.8125 2.605469 -0.828125 5.386719 -0.117188 C 7.519531 0.386719 15.246094 0.324219 17.703125 0 C 23.324219 -0.738281 24.09375 -5.859375 21.847656 -9.027344 C 18.679688 -9.027344 15.511719 -9.027344 12.34375 -9.027344 C 12.105469 -9.027344 11.871094 -9.027344 11.664062 -9.027344 C 11.664062 -9.648438 11.664062 -10.183594 11.664062 -10.835938 C 14.414062 -10.835938 15.304688 -10.773438 16.8125 -10.835938 C 21.164062 -11.042969 22.527344 -14.476562 20.75 -18.410156 C 18.234375 -19.210938 13.351562 -18.886719 11.632812 -18.886719 C 11.632812 -19.476562 11.632812 -19.953125 11.632812 -20.425781 C 15.453125 -20.425781 16.132812 -20.425781 17.730469 -20.425781 C 24.863281 -20.425781 24.09375 -27.765625 23 -29.335938 C 17.730469 -29.75 6.570312 -29.867188 1.628906 -29.363281 C 1.035156 -24.363281 0.917969 -10.894531 1.15625 -6.839844 Z M 1.15625 -6.839844 "/></g></g></g><g fill="#ff66c4" fill-opacity="1"><g transform="translate(237.729701, 354.870365)"><g><path d="M 12.402344 -19.359375 C 12.402344 -19.65625 12.582031 -22.46875 12.3125 -25.074219 C 11.871094 -29.570312 5.210938 -31.199219 1.273438 -27.945312 C 0.917969 -22.554688 1.273438 -8.140625 1.507812 -4.882812 C 2.011719 2.398438 10.863281 0.769531 12.492188 -0.710938 C 12.492188 -3.789062 12.492188 -6.898438 12.492188 -9.796875 C 14.445312 -9.796875 16.132812 -9.796875 18.027344 -9.796875 C 18.027344 -8.523438 18.085938 -5.121094 18.292969 -3.582031 C 18.972656 1.804688 27.796875 0.738281 29.128906 -0.738281 C 29.1875 -1.421875 29.214844 -2.839844 29.214844 -3.878906 C 29.246094 -11.398438 29.246094 -20.839844 29.246094 -23.800781 C 29.246094 -29.453125 22.023438 -31.289062 18.382812 -28.386719 C 18.117188 -26.789062 18.175781 -22.675781 18.085938 -19.359375 C 16.191406 -19.359375 14.355469 -19.359375 12.402344 -19.359375 Z M 12.402344 -19.359375 "/></g></g></g><g fill="#ff66c4" fill-opacity="1"><g transform="translate(268.333203, 354.870365)"><g/></g></g><g fill="#ff66c4" fill-opacity="1"><g transform="translate(283.25018, 354.870365)"><g><path d="M 22.261719 -13.972656 C 22.171875 -14.207031 22.199219 -14.59375 22.347656 -14.859375 C 23.859375 -17.878906 25.28125 -19.863281 26.195312 -22.347656 C 28.179688 -27.855469 22.527344 -30.785156 18.828125 -29.511719 C 17.109375 -26.847656 15.421875 -23.5625 14.0625 -20.75 C 13.171875 -23 12.136719 -25.425781 11.070312 -27.5 C 9.058594 -31.464844 1.390625 -29.601562 0.679688 -25.425781 C 2.28125 -21.964844 3.9375 -18.472656 5.535156 -14.976562 C 5.652344 -14.742188 5.683594 -14.355469 5.566406 -14.121094 C 4.5 -12.019531 2.753906 -9.738281 1.835938 -6.75 C 1.066406 -4.234375 2.132812 1.71875 10.332031 -0.148438 C 10.773438 -1.15625 12.34375 -4.675781 13.792969 -7.902344 C 14.5625 -5.980469 15.363281 -4.113281 15.867188 -3.109375 C 19.300781 3.640625 26.464844 -0.03125 26.757812 -4.234375 C 25.636719 -7.222656 23.207031 -11.8125 22.261719 -13.972656 Z M 22.261719 -13.972656 "/></g></g></g><g fill="#ff66c4" fill-opacity="1"><g transform="translate(311.07154, 354.870365)"><g><path d="M 27.855469 -19.152344 C 23.386719 -22.496094 18.058594 -21.164062 17.613281 -20.867188 C 17.613281 -20.867188 17.582031 -20.867188 17.554688 -20.867188 C 17.523438 -20.867188 17.496094 -20.898438 17.433594 -20.898438 C 17.433594 -20.929688 17.40625 -20.957031 17.40625 -20.957031 C 17.40625 -21.492188 17.523438 -23.089844 17.316406 -26.167969 C 17.140625 -28.652344 13.585938 -30.105469 10.539062 -30.015625 C 9 -29.957031 7.753906 -29.867188 6.957031 -29.75 C -0.175781 -28.652344 -0.148438 -22.023438 2.28125 -19.300781 C 3.109375 -19.0625 4.558594 -18.914062 6.335938 -18.828125 C 6.246094 -12.167969 6.363281 -4.261719 6.925781 -2.160156 C 9.503906 0.355469 21.992188 2.160156 27.914062 -1.804688 C 32.648438 -4.972656 33.773438 -14.710938 27.855469 -19.152344 Z M 18.085938 -9.355469 C 18.085938 -10.566406 18.085938 -11.425781 18.117188 -12.460938 C 18.117188 -12.582031 18.324219 -12.816406 18.441406 -12.816406 C 19.183594 -12.816406 19.953125 -12.847656 20.660156 -12.699219 C 21.550781 -12.550781 21.964844 -11.898438 21.964844 -10.746094 C 21.964844 -9.53125 20.039062 -8.171875 18.085938 -9.355469 Z M 18.085938 -9.355469 "/></g></g></g><g fill="#ff66c4" fill-opacity="1"><g transform="translate(344.042794, 354.870365)"><g><path d="M 20.957031 -18.117188 C 16.8125 -21.222656 11.871094 -19.980469 11.457031 -19.714844 C 11.425781 -19.714844 11.425781 -19.714844 11.398438 -19.714844 C 11.367188 -19.714844 11.335938 -19.746094 11.308594 -19.746094 C 11.277344 -19.773438 11.25 -19.773438 11.25 -19.804688 C 11.25 -19.953125 11.25 -20.75 11.25 -21.34375 C 14.535156 -21.34375 15.183594 -21.34375 16.664062 -21.34375 C 23.445312 -21.34375 22.734375 -27.972656 21.699219 -29.484375 C 16.664062 -29.839844 6.484375 -29.957031 1.777344 -29.511719 C 1.363281 -25.929688 0.472656 -17.40625 1.273438 -9.886719 C 1.6875 -5.800781 3.226562 -3.050781 6.1875 -1.15625 C 9.886719 1.214844 17.761719 0.800781 21.015625 -2.011719 C 25.011719 -5.476562 26.464844 -14 20.957031 -18.117188 Z M 11.898438 -9 C 11.722656 -10.003906 11.839844 -11.070312 11.929688 -11.898438 C 13.585938 -13.410156 15.6875 -12.3125 15.511719 -10.300781 C 15.363281 -8.761719 13.707031 -7.902344 11.898438 -9 Z M 11.898438 -9 "/></g></g></g></svg>